# Blender v2.80 (sub 29) OBJ File: 'Various_Plants_001_wb.blend'
# www.blender.org
o Plant_Roots_LOD1_Plane.005
v -1.244736 -3.077470 -0.173045
v 0.464248 -3.077470 -0.173045
v -0.836274 0.131749 -0.173045
v 0.996877 0.131749 -0.173045
v 0.896874 -2.220458 1.033392
v 0.156624 -2.220457 -1.636140
v 0.213927 -0.043571 1.256959
v -0.526323 -0.043571 -1.412573
v -1.833160 -1.472860 0.028545
v 1.466101 -1.472860 0.028545
v 0.403769 -1.132014 1.194813
v -0.336482 -1.132014 -1.474719
v 1.692667 -2.681381 -2.138457
v -1.431790 -2.818823 -1.441182
v 1.087103 0.100363 -0.431020
v -0.828679 -0.113821 0.655586
v 1.421854 -1.315197 -1.159492
v -1.129496 -1.529381 -0.072886
vt 0.510364 0.293304
vt 0.000000 0.293304
vt 0.072585 0.000000
vt 0.356156 0.000000
vt 0.510364 0.799925
vt 0.907307 0.799925
vt 0.907307 1.000000
vt 0.510364 1.000000
vt 0.419341 0.586607
vt 0.154977 0.586607
vt 0.510364 0.586164
vt 0.907307 0.586164
vt 0.944525 0.300969
vt 0.519662 0.280278
vt 0.559718 0.000000
vt 0.948516 0.022897
vt 1.000000 0.586164
vt 0.510364 0.586164
vn 0.0000 -0.0114 0.9999
vn 0.0000 0.0148 0.9999
vn 0.0000 0.1246 0.9922
vn 0.9172 0.3066 -0.2543
vn 0.9165 0.3089 -0.2541
vn 0.9478 0.1803 -0.2628
vn 0.0000 -0.1246 0.9922
vn 0.8700 0.4299 -0.2412
vn -0.3359 0.5529 -0.7625
vn -0.3529 0.5295 -0.7714
vn -0.4306 0.4089 -0.8046
vn -0.2662 0.6401 -0.7207
s 1
f 9/1/1 10/2/2 4/3/3 3/4/3
f 11/5/4 12/6/5 8/7/6 7/8/6
f 1/9/7 2/10/7 10/2/2 9/1/1
f 5/11/8 6/12/8 12/6/5 11/5/4
f 17/13/9 18/14/10 16/15/11 15/16/11
f 13/17/12 14/18/12 18/14/10 17/13/9
