# Blender v2.80 (sub 29) OBJ File: 'Various_Plants_001_wb.blend'
# www.blender.org
o L_Dry_Grass_LOD1_Plane.008
v -1.472133 2.359715 0.244082
v 1.020678 2.365018 0.343535
v -0.949438 -0.019585 -0.047408
v 0.951563 -0.008667 -0.162158
v -1.393888 4.679269 1.440899
v 0.946137 5.084955 1.627107
v -0.040933 2.286180 0.241499
v -0.009127 0.001072 -0.106157
v 0.016372 5.083446 1.617268
v 0.051183 1.771389 -1.645674
v -0.931391 1.781974 0.713048
v 0.099084 -0.090380 -0.944358
v -0.650809 -0.068592 0.716887
v -0.865196 3.494131 -2.221533
v -1.857800 3.923018 -0.082496
v -0.544545 1.624635 -0.334516
v -0.283672 -0.049154 -0.124076
v -1.419917 3.920005 -0.942586
v 0.850528 2.280549 0.734169
v -0.416653 2.767432 -1.398465
v 0.429041 -0.122724 0.161201
v -0.546817 0.094986 -1.512874
v 1.709659 4.971002 0.512203
v 0.604546 6.099987 -1.487049
v 0.124865 2.299600 -0.546056
v -0.067309 -0.035873 -0.660720
v 1.079869 5.884236 -0.622209
v -1.230666 1.022631 -1.479395
v -1.299901 0.925071 0.500813
v -0.838493 -0.038144 -0.970986
v -1.025324 -0.099962 0.321183
v -2.073958 1.855928 -1.754755
v -2.244215 2.057116 0.053285
v -1.022271 0.822279 -0.483258
v -0.948675 -0.041944 -0.330011
v -2.120163 2.102164 -0.673890
v -0.005685 1.022631 0.943483
v 1.806096 0.925071 0.141318
v 0.280519 -0.038144 0.368708
v 1.524619 -0.099961 -0.027296
v 0.114716 1.855928 1.822386
v 1.815701 2.057116 1.186267
v 0.799546 0.822279 0.321134
v 0.905292 -0.041944 0.188021
v 1.107320 2.102164 1.392106
v 1.394622 1.022631 -0.146464
v 0.051772 0.925071 -1.603438
v 0.758300 -0.038144 -0.232341
v -0.017223 -0.099961 -1.282659
v 1.857022 2.264430 -0.428645
v 0.703459 2.362567 -1.646638
v 0.546129 0.822279 -0.708404
v 0.386055 -0.041944 -0.765654
v 0.998658 2.102164 -1.344648
vt 0.475338 0.265067
vt 0.336188 0.279277
vt 0.346475 0.000000
vt 0.474497 0.001775
vt 0.664508 0.271020
vt 0.664508 0.571274
vt 0.479140 0.624475
vt 0.356241 0.626444
vt 0.599988 0.000365
vt 0.814758 0.205594
vt 0.664508 0.205942
vt 0.713979 0.000000
vt 0.833770 0.012908
vt 1.000000 0.237096
vt 1.000000 0.470983
vt 0.808398 0.499215
vt 0.682937 0.490825
vt 0.952852 0.018207
vt 0.193695 0.440628
vt 0.336188 0.404548
vt 0.304645 0.706370
vt 0.173605 0.706905
vt 0.000000 0.421475
vt 0.013719 0.093495
vt 0.202378 0.010151
vt 0.336188 0.000000
vt 0.045465 0.701939
vt 0.473225 0.744839
vt 0.336188 0.741306
vt 0.386538 0.626444
vt 0.471050 0.646380
vt 0.588287 0.800062
vt 0.577278 0.928889
vt 0.434341 0.928889
vt 0.338179 0.910242
vt 0.556446 0.658978
vt 0.136255 0.817222
vt 0.000000 0.827022
vt 0.033901 0.706905
vt 0.119641 0.718157
vt 0.253873 0.858660
vt 0.253873 0.984201
vt 0.115040 1.000000
vt 0.017699 0.991013
vt 0.205467 0.722120
vt 0.800214 0.609616
vt 0.664508 0.620540
vt 0.698608 0.499215
vt 0.785700 0.509017
vt 0.926540 0.645779
vt 0.926540 0.800669
vt 0.761185 0.773079
vt 0.704160 0.799067
vt 0.872366 0.511741
vn 0.0066 0.2960 -0.9552
vn 0.0254 0.3182 -0.9477
vn 0.0162 0.1800 -0.9835
vn -0.0030 0.1569 -0.9876
vn -0.0090 0.3108 -0.9504
vn 0.0024 0.4491 -0.8934
vn 0.0196 0.4407 -0.8974
vn 0.0331 0.4340 -0.9003
vn -0.0226 0.1331 -0.9908
vn 0.8806 0.3075 0.3604
vn 0.8858 0.3127 0.3429
vn 0.9203 0.1630 0.3555
vn 0.9059 0.1740 0.3861
vn 0.8618 0.3555 0.3617
vn 0.8276 0.4627 0.3177
vn 0.8321 0.4520 0.3212
vn 0.8362 0.4422 0.3243
vn 0.8895 0.1853 0.4175
vn -0.8353 0.1285 0.5346
vn -0.8198 0.1584 0.5502
vn -0.8526 0.0310 0.5216
vn -0.8580 0.0349 0.5125
vn -0.8318 0.1613 0.5311
vn -0.7972 0.2564 0.5465
vn -0.7933 0.2460 0.5568
vn -0.7907 0.2393 0.5635
vn -0.8630 0.0387 0.5036
vn 0.9066 0.4170 0.0651
vn 0.8689 0.4607 0.1808
vn 0.9633 0.1747 0.2039
vn 0.9748 0.1981 0.1026
vn 0.8344 0.5476 -0.0616
vn 0.7424 0.6659 -0.0727
vn 0.7431 0.6680 0.0403
vn 0.7346 0.6617 0.1501
vn 0.9738 0.2252 -0.0303
vn -0.3371 0.4170 -0.8441
vn -0.2166 0.4607 -0.8607
vn -0.2370 0.1747 -0.9557
vn -0.3332 0.1981 -0.9218
vn -0.4196 0.5476 -0.7238
vn -0.3895 0.6659 -0.6362
vn -0.2881 0.6680 -0.6861
vn -0.1856 0.6617 -0.7264
vn -0.4524 0.2252 -0.8629
vn -0.7150 0.3103 0.6265
vn -0.7611 0.3153 0.5668
vn -0.8284 0.1747 0.5322
vn -0.7654 0.1981 0.6123
vn -0.6514 0.3858 0.6532
vn -0.6357 0.4572 0.6220
vn -0.6673 0.4399 0.6009
vn -0.6901 0.4266 0.5846
vn -0.6713 0.2252 0.7062
s 1
f 7/1/1 2/2/2 4/3/3 8/4/4
f 7/1/1 1/5/5 5/6/6 9/7/7
f 2/2/2 7/1/1 9/7/7 6/8/8
f 1/5/5 7/1/1 8/4/4 3/9/9
f 16/10/10 11/11/11 13/12/12 17/13/13
f 16/10/10 10/14/14 14/15/15 18/16/16
f 11/11/11 16/10/10 18/16/16 15/17/17
f 10/14/14 16/10/10 17/13/13 12/18/18
f 25/19/19 20/20/20 22/21/21 26/22/22
f 25/19/19 19/23/23 23/24/24 27/25/25
f 20/20/20 25/19/19 27/25/25 24/26/26
f 19/23/23 25/19/19 26/22/22 21/27/27
f 34/28/28 29/29/29 31/30/30 35/31/31
f 34/28/28 28/32/32 32/33/33 36/34/34
f 29/29/29 34/28/28 36/34/34 33/35/35
f 28/32/32 34/28/28 35/31/31 30/36/36
f 43/37/37 38/38/38 40/39/39 44/40/40
f 43/37/37 37/41/41 41/42/42 45/43/43
f 38/38/38 43/37/37 45/43/43 42/44/44
f 37/41/41 43/37/37 44/40/40 39/45/45
f 52/46/46 47/47/47 49/48/48 53/49/49
f 52/46/46 46/50/50 50/51/51 54/52/52
f 47/47/47 52/46/46 54/52/52 51/53/53
f 46/50/50 52/46/46 53/49/49 48/54/54
