# Blender v2.80 (sub 29) OBJ File: 'Various_Plants_001_wb.blend'
# www.blender.org
o M_Green_Grass_LOD2_Plane.004
v -0.706683 1.492668 1.589384
v 1.149003 1.496297 0.898741
v -1.106683 -0.182666 0.592540
v 0.676091 -0.175196 -0.244662
v 1.599252 1.494283 0.187482
v 0.407237 1.498842 -1.359152
v 0.754818 -0.186102 0.882214
v 0.003768 -0.176716 -0.677280
v -0.140850 1.490569 -1.696318
v -1.808960 1.492988 -0.617703
v 0.466394 -0.178199 -0.791064
v -1.093747 -0.173219 -0.189917
v 0.412171 2.305049 -0.977018
v -1.485845 1.781586 0.421905
v 0.506139 -0.260489 -0.650484
v -0.410687 0.838375 1.357573
v 0.730372 0.418405 1.258966
v -0.500853 -0.162398 0.527656
vt 0.441477 0.067210
vt 0.444521 0.417779
vt 0.786515 0.425703
vt 0.786515 0.059099
vt 0.436386 0.796063
vt 0.489534 0.473624
vt 0.773625 0.443866
vt 0.782466 0.783698
vt 0.328890 0.913356
vt 0.009081 0.924211
vt 0.034448 0.602825
vt 0.328890 0.560066
vt 0.406641 0.017107
vt 0.418223 0.464562
vt 0.009081 0.364269
vt 0.990919 0.680531
vt 0.976219 0.451751
vt 0.800629 0.633039
vn 0.3200 -0.5682 0.7580
vn 0.4074 0.4736 0.7808
vn -0.7472 0.4704 0.4695
vn 0.5662 0.1244 0.8148
vn -0.1624 -0.6211 0.7667
s 1
f 1/1/1 3/2/1 4/3/1 2/4/1
f 10/5/2 12/6/2 11/7/2 9/8/2
f 5/9/3 6/10/3 8/11/3 7/12/3
f 15/13/4 13/14/4 14/15/4
f 16/16/5 18/17/5 17/18/5
