# Blender v2.80 (sub 29) OBJ File: 'Various_Plants_001_wb.blend'
# www.blender.org
o S_Green_Grass_LOD1_Plane.003
v -0.646714 0.148067 0.357347
v 0.932651 0.127984 0.296376
v -0.774256 1.652912 1.045746
v 1.116741 1.797229 0.859920
v 0.163754 0.039420 0.607706
v -0.007667 1.804043 1.478902
v -0.724514 0.916693 0.672289
v 0.917907 1.002177 0.513417
v 0.198846 0.842300 0.643278
v 1.149241 -0.084982 -0.704838
v -0.078716 -0.047388 0.919229
v 0.567960 1.896561 -1.426458
v -0.831288 2.009603 0.665715
v 0.184522 -0.246746 -0.087145
v -0.420501 2.129410 -0.880330
v 0.840593 0.905790 -1.043728
v -0.301881 1.018832 0.735891
v 0.195498 0.828646 -0.078128
v 0.316078 -0.052484 0.454812
v 0.655248 -0.081752 -1.134528
v 0.816254 1.103118 0.816714
v 1.094509 1.230588 -1.175024
v 0.686405 -0.131872 -0.321208
v 1.672837 1.223254 0.171024
v 0.533597 0.542374 0.583057
v 0.804025 0.607915 -1.067908
v 0.715263 0.480745 -0.275803
v 0.621588 0.290000 -0.612157
v -0.209413 -0.307180 0.653271
v -0.176784 1.418471 -1.187998
v -1.499298 1.155510 0.494028
v -0.077086 -0.085636 -0.156850
v -1.014308 0.970159 -0.672165
v 0.085138 0.869425 -0.922159
v -0.786588 0.535216 0.526300
v -0.262863 0.565936 -0.057804
v 0.759415 -0.277064 -0.769686
v 0.756379 -0.024442 0.838004
v 0.198436 0.948055 -1.994071
v 0.211033 1.831478 0.543416
v 0.420618 -0.094445 0.060025
v -0.139666 1.375124 -0.583652
v 0.372111 0.418870 -1.061720
v 0.538814 0.945151 0.570724
v 0.560821 0.553959 -0.109638
vt 0.576088 0.718154
vt 0.455152 0.690393
vt 0.425181 0.497721
vt 0.615790 0.456823
vt 0.732371 0.705561
vt 0.744173 0.524554
vt 0.715763 0.888864
vt 0.578713 0.888620
vt 0.448871 0.888864
vt 0.211664 0.357671
vt 0.048609 0.334338
vt 0.000000 0.093449
vt 0.256789 0.000000
vt 0.406268 0.331299
vt 0.425181 0.090716
vt 0.396826 0.571925
vt 0.225035 0.564478
vt 0.054886 0.571925
vt 0.899155 0.691766
vt 0.882228 0.868172
vt 0.767667 0.902271
vt 0.744173 0.613557
vt 0.891912 0.497534
vt 0.783804 0.456823
vt 1.000000 0.517512
vt 0.996975 0.700368
vt 1.000000 0.877089
vt 0.619935 0.275484
vt 0.577859 0.436335
vt 0.425181 0.456823
vt 0.456435 0.180227
vt 0.607018 0.059247
vt 0.504729 0.000000
vt 0.738249 0.106585
vt 0.729869 0.272995
vt 0.750302 0.456823
vt 0.164266 0.750907
vt 0.266167 0.794304
vt 0.288437 0.998537
vt 0.151343 1.000000
vt 0.039418 0.790792
vt 0.000000 0.928268
vt 0.051165 0.604519
vt 0.201329 0.629292
vt 0.288437 0.571925
vn 0.1150 -0.3724 0.9209
vn 0.3421 -0.3684 0.8644
vn 0.3581 -0.5202 0.7753
vn 0.0822 -0.5769 0.8126
vn -0.1586 -0.4321 0.8877
vn -0.1627 -0.5885 0.7920
vn -0.1463 -0.2191 0.9647
vn 0.0762 -0.1880 0.9792
vn 0.3035 -0.1455 0.9416
vn -0.7926 -0.3455 -0.5023
vn -0.8744 -0.3560 -0.3294
vn -0.8052 -0.5146 -0.2945
vn -0.7057 -0.5364 -0.4628
vn -0.6404 -0.4000 -0.6556
vn -0.5993 -0.5386 -0.5922
vn -0.6695 -0.2102 -0.7124
vn -0.8152 -0.1706 -0.5535
vn -0.9248 -0.1210 -0.3605
vn 0.8828 -0.4539 0.1205
vn 0.8934 -0.4343 -0.1149
vn 0.7470 -0.6305 -0.2107
vn 0.6833 -0.7218 0.1099
vn 0.7512 -0.5485 0.3672
vn 0.5714 -0.7347 0.3657
vn 0.9149 -0.2340 0.3291
vn 0.9679 -0.1855 0.1693
vn 0.9904 -0.1368 0.0204
vn -0.5809 -0.6349 -0.5094
vn -0.6379 -0.7019 -0.3168
vn -0.4959 -0.8422 -0.2114
vn -0.3576 -0.8318 -0.4245
vn -0.3551 -0.6711 -0.6507
vn -0.2071 -0.7734 -0.5991
vn -0.5707 -0.4523 -0.6854
vn -0.6976 -0.4375 -0.5673
vn -0.7928 -0.4133 -0.4478
vn -0.9554 -0.2528 0.1524
vn -0.9209 -0.2505 0.2986
vn -0.8454 -0.4078 0.3450
vn -0.8665 -0.4613 0.1906
vn -0.9160 -0.4002 0.0263
vn -0.8665 -0.4952 0.0631
vn -0.9794 -0.1963 -0.0475
vn -0.9921 -0.0887 0.0886
vn -0.9782 0.0092 0.2075
s 1
f 9/1/1 8/2/2 4/3/3 6/4/4
f 7/5/5 9/1/1 6/4/4 3/6/6
f 1/7/7 5/8/8 9/1/1 7/5/5
f 5/8/8 2/9/9 8/2/2 9/1/1
f 18/10/10 17/11/11 13/12/12 15/13/13
f 16/14/14 18/10/10 15/13/13 12/15/15
f 10/16/16 14/17/17 18/10/10 16/14/14
f 14/17/17 11/18/18 17/11/11 18/10/10
f 27/19/19 26/20/20 22/21/21 24/22/22
f 25/23/23 27/19/19 24/22/22 21/24/24
f 19/25/25 23/26/26 27/19/19 25/23/23
f 23/26/26 20/27/27 26/20/20 27/19/19
f 36/28/28 35/29/29 31/30/30 33/31/31
f 34/32/32 36/28/28 33/31/31 30/33/33
f 28/34/34 32/35/35 36/28/28 34/32/32
f 32/35/35 29/36/36 35/29/29 36/28/28
f 45/37/37 44/38/38 40/39/39 42/40/40
f 43/41/41 45/37/37 42/40/40 39/42/42
f 37/43/43 41/44/44 45/37/37 43/41/41
f 41/44/44 38/45/45 44/38/38 45/37/37
